<?xml version="1.0" encoding="UTF-8" standalone="no"?>
<svg width="135px" height="40px" viewBox="0 0 135 40" version="1.1" xmlns="http://www.w3.org/2000/svg" xmlns:xlink="http://www.w3.org/1999/xlink">
    <defs></defs>
    <g id="Page-1" stroke="none" stroke-width="1" fill="none" fill-rule="evenodd">
        <g id="Artboard">
            <g id="download_on_the_app_store_badge_360-1">
                <rect id="Rectangle-path" fill="#33CCFF" x="0" y="0" width="135" height="40" rx="6"></rect>
                <path d="M122.722,14.578 L122.722,17.483 L115.175,17.483 L115.175,7.095 L122.468,7.095 L122.468,10 L118.529,10 L118.529,10.895 L122.228,10.895 L122.228,13.61 L118.529,13.61 L118.529,14.578 L122.722,14.578 L122.722,14.578 Z M108.744,13.903 C108.939,14.099 109.166,14.248 109.425,14.35 C109.685,14.453 109.959,14.504 110.249,14.504 C110.658,14.504 111.01,14.422 111.305,14.255 C111.599,14.089 111.831,13.893 112.001,13.668 L114.187,16.236 C113.708,16.705 113.119,17.08 112.42,17.358 C111.721,17.637 110.928,17.776 110.039,17.776 C109.241,17.776 108.489,17.644 107.786,17.38 C107.082,17.116 106.47,16.742 105.951,16.258 C105.432,15.774 105.023,15.197 104.724,14.527 C104.424,13.857 104.274,13.111 104.274,12.289 C104.274,11.458 104.424,10.704 104.724,10.029 C105.023,9.355 105.432,8.777 105.951,8.298 C106.47,7.819 107.082,7.45 107.786,7.19 C108.489,6.931 109.241,6.802 110.039,6.802 C110.858,6.802 111.631,6.931 112.36,7.19 C113.089,7.45 113.698,7.799 114.187,8.239 L112.001,10.822 C111.801,10.568 111.552,10.374 111.252,10.242 C110.953,10.11 110.618,10.044 110.249,10.044 C109.949,10.044 109.67,10.095 109.41,10.198 C109.151,10.301 108.924,10.45 108.729,10.646 C108.534,10.841 108.382,11.079 108.272,11.357 C108.162,11.636 108.108,11.947 108.108,12.289 C108.108,12.632 108.165,12.937 108.28,13.206 C108.394,13.475 108.549,13.707 108.744,13.903 L108.744,13.903 Z M99.657,17.483 L97.626,13.771 L97.521,13.771 L97.521,17.483 L94.062,17.483 L94.062,7.095 L98.629,7.095 C99.148,7.095 99.665,7.146 100.179,7.249 C100.693,7.352 101.152,7.533 101.557,7.792 C101.961,8.051 102.288,8.398 102.538,8.834 C102.787,9.269 102.912,9.814 102.912,10.47 C102.912,11.106 102.752,11.665 102.434,12.15 C102.115,12.634 101.657,13.008 101.06,13.272 L103.75,17.483 L99.657,17.483 L99.657,17.483 Z M99.319,10.176 C99.25,10.069 99.16,9.988 99.051,9.934 C98.942,9.88 98.824,9.846 98.695,9.831 C98.566,9.817 98.447,9.809 98.338,9.809 L97.491,9.809 L97.491,11.482 L98.19,11.482 C98.309,11.482 98.44,11.472 98.583,11.453 C98.727,11.433 98.861,11.392 98.984,11.328 C99.108,11.264 99.212,11.176 99.297,11.064 C99.381,10.952 99.423,10.802 99.423,10.616 C99.423,10.431 99.388,10.284 99.319,10.176 L99.319,10.176 Z M90.963,16.515 C90.544,16.906 90.022,17.214 89.398,17.439 C88.774,17.664 88.048,17.776 87.219,17.776 C86.391,17.776 85.67,17.664 85.056,17.439 C84.442,17.214 83.93,16.906 83.521,16.515 C83.111,16.124 82.807,15.661 82.607,15.128 C82.408,14.595 82.308,14.02 82.308,13.404 L82.308,7.095 L85.872,7.095 L85.872,13.023 C85.872,13.522 85.994,13.91 86.239,14.189 C86.483,14.468 86.83,14.607 87.279,14.607 C87.728,14.607 88.075,14.468 88.32,14.189 C88.564,13.91 88.687,13.522 88.687,13.023 L88.687,7.095 L92.236,7.095 L92.236,13.404 C92.236,14.02 92.128,14.595 91.914,15.128 C91.699,15.661 91.382,16.124 90.963,16.515 L90.963,16.515 Z M79.268,16.258 C78.739,16.742 78.115,17.116 77.397,17.38 C76.678,17.644 75.899,17.776 75.061,17.776 C74.222,17.776 73.443,17.644 72.725,17.38 C72.006,17.116 71.385,16.742 70.86,16.258 C70.336,15.774 69.925,15.189 69.625,14.504 C69.326,13.82 69.176,13.062 69.176,12.23 C69.176,11.399 69.326,10.648 69.625,9.978 C69.925,9.308 70.336,8.738 70.86,8.269 C71.385,7.799 72.006,7.437 72.725,7.183 C73.443,6.929 74.222,6.802 75.061,6.802 C75.899,6.802 76.678,6.929 77.397,7.183 C78.115,7.437 78.739,7.799 79.268,8.269 C79.797,8.738 80.212,9.308 80.511,9.978 C80.811,10.648 80.96,11.399 80.96,12.23 C80.96,13.062 80.811,13.82 80.511,14.504 C80.212,15.189 79.797,15.774 79.268,16.258 L79.268,16.258 Z M77,11.313 C76.895,11.035 76.748,10.8 76.558,10.609 C76.368,10.418 76.146,10.269 75.892,10.162 C75.637,10.054 75.36,10 75.061,10 C74.761,10 74.482,10.054 74.222,10.162 C73.962,10.269 73.74,10.418 73.556,10.609 C73.371,10.8 73.226,11.035 73.122,11.313 C73.017,11.592 72.964,11.898 72.964,12.23 C72.964,12.573 73.017,12.886 73.122,13.169 C73.226,13.453 73.371,13.698 73.556,13.903 C73.74,14.108 73.962,14.267 74.222,14.38 C74.482,14.492 74.761,14.549 75.061,14.549 C75.36,14.549 75.637,14.492 75.892,14.38 C76.146,14.267 76.368,14.108 76.558,13.903 C76.748,13.698 76.895,13.453 77,13.169 C77.105,12.886 77.157,12.573 77.157,12.23 C77.157,11.898 77.105,11.592 77,11.313 L77,11.313 Z M65.448,9.89 C65.098,9.739 64.784,9.663 64.504,9.663 C64.245,9.663 64.035,9.699 63.875,9.773 C63.715,9.846 63.636,9.966 63.636,10.132 C63.636,10.289 63.718,10.406 63.883,10.484 C64.047,10.563 64.314,10.66 64.684,10.778 C65.063,10.895 65.462,11.032 65.882,11.189 C66.301,11.345 66.688,11.548 67.042,11.798 C67.396,12.047 67.688,12.353 67.918,12.715 C68.148,13.076 68.263,13.526 68.263,14.064 C68.263,14.69 68.135,15.236 67.881,15.7 C67.626,16.165 67.292,16.551 66.877,16.859 C66.463,17.168 65.996,17.397 65.477,17.549 C64.958,17.701 64.429,17.776 63.89,17.776 C63.461,17.776 63.039,17.74 62.625,17.667 C62.211,17.594 61.811,17.487 61.427,17.346 C61.043,17.205 60.681,17.039 60.341,16.85 C60.002,16.66 59.698,16.448 59.428,16.215 L61.599,13.903 C61.849,14.167 62.181,14.402 62.595,14.607 C63.009,14.813 63.436,14.915 63.875,14.915 C64.075,14.915 64.257,14.881 64.422,14.812 C64.587,14.744 64.669,14.616 64.669,14.43 C64.669,14.332 64.641,14.249 64.587,14.18 C64.532,14.112 64.434,14.041 64.295,13.967 C64.155,13.894 63.963,13.813 63.718,13.725 C63.473,13.637 63.166,13.534 62.797,13.416 C62.438,13.299 62.093,13.159 61.764,12.997 C61.434,12.836 61.143,12.637 60.888,12.402 C60.633,12.167 60.431,11.885 60.282,11.557 C60.132,11.228 60.057,10.834 60.057,10.373 C60.057,9.727 60.192,9.178 60.461,8.727 C60.731,8.277 61.078,7.907 61.502,7.617 C61.926,7.328 62.403,7.12 62.932,6.993 C63.461,6.865 63.985,6.802 64.504,6.802 C65.203,6.802 65.914,6.934 66.638,7.198 C67.362,7.462 67.998,7.843 68.547,8.342 L66.331,10.558 C66.091,10.264 65.797,10.042 65.448,9.89 L65.448,9.89 Z M48.123,12.524 L48.063,12.524 L48.213,17.483 L44.829,17.483 L44.829,7.095 L48.377,7.095 L51.402,12.362 L51.462,12.362 L51.312,7.095 L54.696,7.095 L54.696,17.483 L51.058,17.483 L48.123,12.524 L48.123,12.524 Z M35.799,7.095 L43.092,7.095 L43.092,10 L39.154,10 L39.154,10.895 L42.852,10.895 L42.852,13.61 L39.154,13.61 L39.154,14.578 L43.346,14.578 L43.346,17.483 L35.799,17.483 L35.799,7.095 L35.799,7.095 Z M33.112,13.331 C32.708,13.615 32.243,13.82 31.719,13.947 C31.195,14.074 30.658,14.138 30.11,14.138 L29.106,14.138 L29.106,17.483 L25.557,17.483 L25.557,7.095 L30.11,7.095 C30.649,7.095 31.178,7.151 31.697,7.264 C32.216,7.376 32.68,7.567 33.089,7.836 C33.499,8.105 33.828,8.462 34.078,8.907 C34.327,9.352 34.452,9.912 34.452,10.587 C34.452,11.233 34.33,11.781 34.085,12.23 C33.84,12.68 33.516,13.047 33.112,13.331 L33.112,13.331 Z M30.843,10.213 C30.783,10.11 30.701,10.029 30.596,9.971 C30.491,9.912 30.374,9.871 30.244,9.846 C30.114,9.822 29.985,9.809 29.855,9.809 L29.106,9.809 L29.106,11.482 L29.855,11.482 C30.125,11.482 30.372,11.416 30.596,11.284 C30.821,11.152 30.933,10.929 30.933,10.616 C30.933,10.45 30.903,10.316 30.843,10.213 L30.843,10.213 Z M22.368,16.258 C21.839,16.742 21.215,17.116 20.496,17.38 C19.778,17.644 18.999,17.776 18.16,17.776 C17.322,17.776 16.543,17.644 15.825,17.38 C15.106,17.116 14.484,16.742 13.96,16.258 C13.436,15.774 13.024,15.189 12.725,14.504 C12.425,13.82 12.276,13.062 12.276,12.23 C12.276,11.399 12.425,10.648 12.725,9.978 C13.024,9.308 13.436,8.738 13.96,8.269 C14.484,7.799 15.106,7.437 15.825,7.183 C16.543,6.929 17.322,6.802 18.16,6.802 C18.999,6.802 19.778,6.929 20.496,7.183 C21.215,7.437 21.839,7.799 22.368,8.269 C22.897,8.738 23.311,9.308 23.611,9.978 C23.91,10.648 24.06,11.399 24.06,12.23 C24.06,13.062 23.91,13.82 23.611,14.504 C23.311,15.189 22.897,15.774 22.368,16.258 L22.368,16.258 Z M20.1,11.313 C19.995,11.035 19.847,10.8 19.658,10.609 C19.468,10.418 19.246,10.269 18.992,10.162 C18.737,10.054 18.46,10 18.16,10 C17.861,10 17.581,10.054 17.322,10.162 C17.062,10.269 16.84,10.418 16.656,10.609 C16.471,10.8 16.326,11.035 16.221,11.313 C16.116,11.592 16.064,11.898 16.064,12.23 C16.064,12.573 16.116,12.886 16.221,13.169 C16.326,13.453 16.471,13.698 16.656,13.903 C16.84,14.108 17.062,14.267 17.322,14.38 C17.581,14.492 17.861,14.549 18.16,14.549 C18.46,14.549 18.737,14.492 18.992,14.38 C19.246,14.267 19.468,14.108 19.658,13.903 C19.847,13.698 19.995,13.453 20.1,13.169 C20.204,12.886 20.257,12.573 20.257,12.23 C20.257,11.898 20.204,11.592 20.1,11.313 L20.1,11.313 Z" id="Shape" fill="#FFFFFF"></path>
                <path d="M89.932,26.857 L89.932,33.885 L86.561,33.885 L86.561,26.857 L84.166,26.857 L84.166,23.56 L86.561,23.56 L89.932,23.56 L92.328,23.56 L92.328,26.857 L89.932,26.857 L89.932,26.857 Z M80.795,33.885 L77.512,33.885 L77.512,26.857 L75.117,26.857 L75.117,23.56 L77.512,23.56 L80.795,23.56 L83.19,23.56 L83.19,26.857 L80.795,26.857 L80.795,33.885 L80.795,33.885 Z M71.745,33.885 L68.374,33.885 L68.374,26.857 L65.979,26.857 L65.979,23.56 L68.374,23.56 L71.745,23.56 L74.141,23.56 L74.141,26.857 L71.745,26.857 L71.745,33.885 L71.745,33.885 Z M60.744,27.811 L63.583,27.811 L63.583,31.022 L60.744,31.022 L60.744,33.885 L57.373,33.885 L57.373,31.022 L57.373,27.811 L57.373,26.857 L57.373,23.56 L60.744,23.56 L65.003,23.56 L65.003,26.857 L60.744,26.857 L60.744,27.811 L60.744,27.811 Z M52.582,23.56 L55.953,23.56 L55.953,33.885 L52.582,33.885 L52.582,23.56 L52.582,23.56 Z M47.022,30.681 C46.757,30.985 46.45,31.212 46.101,31.364 C45.751,31.515 45.382,31.591 44.993,31.591 C44.543,31.591 44.214,31.483 44.004,31.268 C43.795,31.053 43.69,30.804 43.69,30.52 L43.63,30.52 C43.58,30.628 43.5,30.743 43.39,30.865 C43.28,30.987 43.146,31.102 42.986,31.21 C42.826,31.317 42.644,31.408 42.44,31.481 C42.235,31.554 42.008,31.591 41.758,31.591 C41.419,31.591 41.114,31.53 40.845,31.408 C40.575,31.285 40.348,31.119 40.164,30.909 C39.979,30.699 39.836,30.444 39.737,30.146 C39.637,29.847 39.587,29.522 39.587,29.17 C39.587,28.759 39.657,28.356 39.797,27.96 C39.936,27.563 40.134,27.211 40.388,26.903 C40.643,26.595 40.955,26.348 41.324,26.162 C41.693,25.976 42.108,25.883 42.567,25.883 C42.946,25.883 43.273,25.969 43.548,26.14 C43.822,26.311 44.014,26.519 44.124,26.764 L44.184,26.764 L44.334,26.103 L45.262,26.103 L44.663,28.833 C44.643,28.901 44.626,28.987 44.611,29.089 C44.596,29.192 44.578,29.3 44.558,29.412 C44.538,29.525 44.523,29.635 44.513,29.742 C44.503,29.85 44.498,29.938 44.498,30.006 C44.498,30.094 44.506,30.18 44.521,30.263 C44.536,30.346 44.571,30.425 44.626,30.498 C44.68,30.571 44.755,30.63 44.85,30.674 C44.945,30.718 45.072,30.74 45.232,30.74 C45.482,30.74 45.709,30.672 45.913,30.535 C46.118,30.398 46.293,30.212 46.438,29.977 C46.582,29.742 46.694,29.463 46.774,29.141 C46.854,28.818 46.894,28.471 46.894,28.099 C46.894,27.463 46.787,26.903 46.572,26.419 C46.358,25.935 46.058,25.526 45.674,25.194 C45.29,24.861 44.835,24.612 44.311,24.446 C43.787,24.279 43.211,24.196 42.582,24.196 C41.893,24.196 41.269,24.313 40.71,24.548 C40.151,24.783 39.669,25.106 39.265,25.517 C38.861,25.927 38.549,26.414 38.329,26.977 C38.109,27.539 38,28.148 38,28.803 C38,29.498 38.114,30.124 38.344,30.681 C38.574,31.239 38.896,31.713 39.31,32.105 C39.724,32.496 40.218,32.797 40.792,33.007 C41.366,33.217 42.003,33.322 42.702,33.322 C43.59,33.322 44.359,33.188 45.008,32.919 C45.656,32.65 46.235,32.271 46.745,31.782 L47.299,32.457 C46.709,33.044 46.018,33.481 45.225,33.77 C44.431,34.058 43.555,34.203 42.597,34.203 C41.738,34.203 40.957,34.068 40.253,33.799 C39.55,33.53 38.948,33.156 38.449,32.677 C37.95,32.198 37.563,31.623 37.289,30.953 C37.014,30.283 36.877,29.551 36.877,28.759 C36.877,27.977 37.026,27.253 37.326,26.588 C37.625,25.923 38.035,25.346 38.554,24.856 C39.073,24.367 39.679,23.983 40.373,23.705 C41.067,23.426 41.808,23.286 42.597,23.286 C43.276,23.286 43.934,23.384 44.573,23.58 C45.212,23.776 45.779,24.069 46.273,24.46 C46.767,24.851 47.161,25.341 47.456,25.927 C47.75,26.514 47.897,27.204 47.897,27.996 C47.897,28.583 47.818,29.102 47.658,29.551 C47.498,30.002 47.286,30.378 47.022,30.681 L47.022,30.681 Z M43.705,27.725 C43.664,27.544 43.597,27.383 43.501,27.241 C43.406,27.099 43.278,26.984 43.118,26.896 C42.957,26.808 42.757,26.764 42.516,26.764 C42.215,26.764 41.951,26.84 41.726,26.991 C41.5,27.143 41.307,27.336 41.147,27.571 C40.986,27.806 40.866,28.07 40.785,28.363 C40.705,28.657 40.665,28.945 40.665,29.229 C40.665,29.366 40.683,29.522 40.718,29.698 C40.753,29.874 40.816,30.041 40.906,30.197 C40.996,30.354 41.119,30.483 41.274,30.586 C41.43,30.689 41.628,30.74 41.869,30.74 C42.21,30.74 42.501,30.657 42.741,30.491 C42.982,30.324 43.178,30.116 43.328,29.867 C43.479,29.618 43.589,29.351 43.659,29.067 C43.73,28.784 43.765,28.52 43.765,28.275 C43.765,28.089 43.745,27.906 43.705,27.725 L43.705,27.725 Z" id="Shape" fill="#FFFFFF"></path>
            </g>
        </g>
    </g>
</svg>